<?xml version="1.0" encoding="UTF-8"?>
<svg width="24px" height="24px" viewBox="0 0 24 24" version="1.1" xmlns="http://www.w3.org/2000/svg" xmlns:xlink="http://www.w3.org/1999/xlink">
    <!-- Generator: Sketch 46.2 (44496) - http://www.bohemiancoding.com/sketch -->
    <title>if_share-2_430080</title>
    <desc>Created with Sketch.</desc>
    <defs></defs>
    <g id="Symbols" stroke="none" stroke-width="1" fill="none" fill-rule="evenodd">
        <g id="аooter" transform="translate(-730.000000, -160.000000)" fill-rule="nonzero" fill="#212121">
            <g id="Group-25">
                <g id="if_share-2_430080" transform="translate(742.000000, 172.000000) rotate(-270.000000) translate(-742.000000, -172.000000) translate(730.000000, 160.000000)">
                    <path d="M3.65085149,7.29790099 C1.63960396,7.29790099 0.00308910891,5.66138614 0.00308910891,3.64990099 C0.00308910891,1.63889109 1.63960396,0.00261386139 3.65085149,0.00261386139 C5.66233663,0.00261386139 7.29885149,1.63889109 7.29885149,3.64990099 C7.29885149,5.66138614 5.66233663,7.29790099 3.65085149,7.29790099 Z M3.65085149,0.953108911 C2.16356436,0.953108911 0.953584158,2.16285149 0.953584158,3.64990099 C0.953584158,5.13742574 2.16356436,6.34740594 3.65085149,6.34740594 C5.13813861,6.34740594 6.34835644,5.13742574 6.34835644,3.64990099 C6.34835644,2.16285149 5.13813861,0.953108911 3.65085149,0.953108911 Z" id="Shape"></path>
                    <path d="M20.1538218,7.29790099 C18.1425743,7.29790099 16.506297,5.66138614 16.506297,3.64990099 C16.506297,1.63865347 18.1425743,0.0019009901 20.1538218,0.0019009901 C22.1655446,0.0019009901 23.8020594,1.63841584 23.8020594,3.64990099 C23.8020594,5.66138614 22.1655446,7.29790099 20.1538218,7.29790099 Z M20.1538218,0.95239604 C18.6667723,0.95239604 17.4567921,2.16261386 17.4567921,3.64990099 C17.4567921,5.13742574 18.6667723,6.34740594 20.1538218,6.34740594 C21.6413465,6.34740594 22.8515644,5.13742574 22.8515644,3.64990099 C22.8515644,2.16261386 21.6413465,0.95239604 20.1538218,0.95239604 Z" id="Shape"></path>
                    <path d="M11.8871287,23.7642772 C9.87540594,23.7642772 8.23889109,22.1277624 8.23889109,20.1165149 C8.23889109,18.1052673 9.87540594,16.4689901 11.8871287,16.4689901 C13.8981386,16.4689901 15.5344158,18.1052673 15.5344158,20.1165149 C15.5344158,22.1277624 13.8981386,23.7642772 11.8871287,23.7642772 Z M11.8871287,17.4197228 C10.399604,17.4197228 9.18938614,18.629703 9.18938614,20.1167525 C9.18938614,21.6040396 10.399604,22.8140198 11.8871287,22.8140198 C13.3741782,22.8140198 14.5839208,21.6040396 14.5839208,20.1167525 C14.5839208,18.6294653 13.3741782,17.4197228 11.8871287,17.4197228 Z" id="Shape"></path>
                    <rect id="Rectangle-path" transform="translate(7.915633, 11.922222) rotate(60.515220) translate(-7.915633, -11.922222) " x="1.77143399" y="11.4222226" width="12.2879534" height="1"></rect>
                    <rect id="Rectangle-path" transform="translate(15.860197, 11.921910) rotate(29.471985) translate(-15.860197, -11.921910) " x="15.3601969" y="5.77800264" width="1" height="12.2878137"></rect>
                </g>
            </g>
        </g>
    </g>
</svg>