<svg xmlns="http://www.w3.org/2000/svg" xmlns:xlink="http://www.w3.org/1999/xlink" width="65" height="53" viewBox="0 0 65 53"><defs><path id="7lqta" d="M444.63 2874h-41.5c-.63 0-1.13.49-1.13 1.1 0 .61.5 1.1 1.13 1.1h41.5a1.1 1.1 0 0 0 1.12-1.1c0-.61-.5-1.1-1.12-1.1z"/><path id="7lqtb" d="M444.63 2881h-41.5c-.63 0-1.13.49-1.13 1.1 0 .61.5 1.1 1.13 1.1h41.5a1.1 1.1 0 0 0 1.12-1.1c0-.61-.5-1.1-1.12-1.1z"/><path id="7lqtc" d="M444.63 2887h-41.5c-.63 0-1.13.49-1.13 1.1 0 .61.5 1.1 1.13 1.1h41.5a1.1 1.1 0 0 0 1.12-1.1c0-.61-.5-1.1-1.12-1.1z"/><path id="7lqtd" d="M428.11 2893h-24.98c-.63 0-1.13.49-1.13 1.1 0 .61.5 1.1 1.13 1.1h24.98a1.1 1.1 0 0 0 1.12-1.1c0-.61-.5-1.1-1.12-1.1z"/><path id="7lqte" d="M455.89 2884.89c0 5.74-2.79 11.29-7.87 15.62a1.1 1.1 0 0 0-.38.83v10.23a2.33 2.33 0 0 1-2.38 2.32c-.62 0-1.22-.23-1.68-.68l-6.2-6.06c-.29-.29-.74-.4-1.15-.26a42.66 42.66 0 0 1-12.78 1.92c-8.61 0-16.71-2.45-22.82-6.9-3-2.19-5.36-4.73-7.02-7.59a18.45 18.45 0 0 1-2.61-9.42c0-3.27.88-6.44 2.61-9.42a25.26 25.26 0 0 1 7.02-7.59c6.11-4.44 14.21-6.89 22.82-6.89 8.6 0 16.71 2.45 22.81 6.89a25.12 25.12 0 0 1 7.02 7.59 18.57 18.57 0 0 1 2.61 9.41zm-4.12 7.52a16.26 16.26 0 0 0 1.87-7.52c0-11.95-13.55-21.69-30.19-21.69-16.65 0-30.2 9.73-30.2 21.69 0 11.97 13.55 21.71 30.2 21.7a40 40 0 0 0 12.09-1.82 3.43 3.43 0 0 1 3.44.81l6.19 6.06c.02.02.05.06.13.03.09-.04.09-.09.09-.12v-10.2c0-.96.41-1.87 1.15-2.49a21.62 21.62 0 0 0 5.23-6.45z"/></defs><g><g transform="translate(-391 -2861)"><use fill="#fff" xlink:href="#7lqta"/></g><g transform="translate(-391 -2861)"><use fill="#fff" xlink:href="#7lqtb"/></g><g transform="translate(-391 -2861)"><use fill="#fff" xlink:href="#7lqtc"/></g><g transform="translate(-391 -2861)"><use fill="#fff" xlink:href="#7lqtd"/></g><g transform="translate(-391 -2861)"><use fill="#fff" xlink:href="#7lqte"/></g></g></svg>