<?xml version="1.0" encoding="UTF-8"?>
<svg width="74px" height="70px" viewBox="0 0 74 70" version="1.1" xmlns="http://www.w3.org/2000/svg" xmlns:xlink="http://www.w3.org/1999/xlink">
    <!-- Generator: Sketch 46.2 (44496) - http://www.bohemiancoding.com/sketch -->
    <title>if_coin_1954193</title>
    <desc>Created with Sketch.</desc>
    <defs></defs>
    <g id="Page-1" stroke="none" stroke-width="1" fill="none" fill-rule="evenodd">
        <g id="home" transform="translate(-1203.000000, -3085.000000)">
            <g id="Group-15" transform="translate(-123.000000, 2524.000000)">
                <g id="Group-12" transform="translate(510.000000, 331.000000)">
                    <g id="if_coin_1954193" transform="translate(817.000000, 231.000000)">
                        <path d="M45.7804774,66.3069072 C42.6573103,67.1558107 39.3568867,67.6114286 35.9435208,67.6114286 C16.3072549,67.6114286 0.38867165,52.5537789 0.38867165,33.9728827 C0.38867165,25.9053306 3.39105324,18.5011699 8.39502257,12.7042865" id="Shape" stroke="#FFFFFF" stroke-width="2" stroke-linecap="round"></path>
                        <path d="M14.1676267,7.38231408 C20.184939,2.96415688 27.7395209,0.335820834 35.9450894,0.334336737 C55.5813552,0.334336737 71.4999385,15.3934705 71.4999385,33.9728827 C71.4999385,47.0655877 63.5955494,58.4085422 52.0550471,63.966486" id="Shape" stroke="#FFFFFF" stroke-width="2" stroke-linecap="round"></path>
                        <path d="M35.8839124,23.0469595 C36.5647032,23.0469595 37.0996102,23.5545207 37.0996102,24.1956507 L37.0996102,24.7833531 C38.7670771,24.9703494 40.1788553,25.4779106 41.4776912,26.2526093 C41.9278916,26.493033 42.3231895,26.8937393 42.3231895,27.5348692 C42.3231895,28.3629954 41.6188691,29.0056095 40.7419979,29.0056095 C40.4596423,29.0056095 40.1788553,28.9254683 39.8964997,28.7651858 C38.9066863,28.204197 37.9451085,27.8034908 36.986668,27.5897808 L36.986668,32.7203047 C41.2784736,33.7354271 43.1137853,35.3664499 43.1137853,38.224821 C43.1137853,41.1633333 40.6870955,43.1149211 37.0996102,43.4354861 L37.0996102,45.038311 C37.0996102,45.680925 36.5631345,46.1870022 35.8839124,46.1870022 C35.2062588,46.1870022 34.6431162,45.6794409 34.6431162,45.038311 L34.6431162,43.3820586 C32.5223117,43.1668645 30.5740578,42.4470774 28.853257,41.2983862 C28.3716838,41.0045349 28.0908968,40.577115 28.0908968,40.0161262 C28.0908968,39.188 28.7685503,38.5468701 29.6438528,38.5468701 C29.9842482,38.5468701 30.3215063,38.652241 30.5756264,38.8407213 C31.9058352,39.7475047 33.2046711,40.3619209 34.7576271,40.6305425 L34.7576271,35.3664499 C30.6336662,34.3498433 28.7120792,32.8805872 28.7120792,29.8619336 C28.7120792,27.0020784 31.1105335,25.025261 34.6431162,24.7581235 L34.6431162,24.1971348 C34.6431162,23.5545207 35.2062588,23.0469595 35.8839124,23.0469595 Z M34.7560585,32.1593159 L34.7560585,27.4294983 C32.9489824,27.5897808 32.0438757,28.4980483 32.0438757,29.6734532 C32.0454444,30.7954307 32.5803514,31.4914722 34.7560585,32.1593159 Z M36.986668,35.872527 L36.986668,40.7359133 C38.7937441,40.5489171 39.7835574,39.6940772 39.7835574,38.4118172 C39.7835574,37.2364123 39.162375,36.5151411 36.986668,35.872527 Z" id="Shape" fill="#FFFFFF" fill-rule="nonzero"></path>
                    </g>
                </g>
            </g>
        </g>
    </g>
</svg>