<?xml version="1.0" encoding="UTF-8"?>
<svg width="75px" height="59px" viewBox="0 0 75 59" version="1.1" xmlns="http://www.w3.org/2000/svg" xmlns:xlink="http://www.w3.org/1999/xlink">
    <!-- Generator: Sketch 46.2 (44496) - http://www.bohemiancoding.com/sketch -->
    <title>if_Jee-33_2180520</title>
    <desc>Created with Sketch.</desc>
    <defs></defs>
    <g id="Page-1" stroke="none" stroke-width="1" fill="none" fill-rule="evenodd" stroke-linecap="round" stroke-linejoin="round">
        <g id="home" transform="translate(-386.000000, -3083.000000)" stroke="#FFFFFF" stroke-width="2">
            <g id="Group-15" transform="translate(-123.000000, 2524.000000)">
                <g id="Group-12" transform="translate(510.000000, 331.000000)">
                    <g id="if_Jee-33_2180520" transform="translate(0.000000, 229.000000)">
                        <g id="Group">
                            <path d="M34.3780053,33.8863186 C34.5027712,36.0158905 34.5027712,38.2215314 35.3012632,40.22433 C36.1496512,42.4299709 38.6199968,43.3172795 40.5912786,44.3567264 C41.8638863,45.0412445 43.1863646,45.7003977 44.4589723,46.38489 C44.6086863,46.4609591 44.7334523,46.5370023 44.8831663,46.6130714 C47.503226,48.0074468 50.5724277,49.3764573 52.7183716,51.4806641 C52.8181895,51.5820723 52.9179818,51.6834805 52.9928516,51.7848886 C54.402187,53.43864 55.0693814,55.3009336 55.3335646,56.2486882 C55.4089723,56.5191791 55.2002947,56.7793323 54.9224593,56.7793323 L39.7428905,56.7792805 L33.330007,56.7792805 L0.477599298,56.7794877 C0.215439649,56.7794877 0.0181091228,56.5375486 0.0883684211,56.2820591 C0.345994386,55.3453159 1.01218982,53.4583309 2.43832807,51.7848886 C2.51319789,51.6834805 2.61299018,51.5820723 2.68786,51.4806641 C4.83380386,49.3764314 7.92795368,48.0074209 10.5230653,46.6130714 C11.945387,45.85251 13.3926312,45.1172877 14.8399011,44.3567264 C16.8111828,43.3172795 19.3813207,42.4299709 20.2297088,40.22433 C21.0282007,38.2215055 21.0282007,36.0158905 21.1529667,33.8863186" id="Shape"></path>
                            <path d="M21.1529667,33.8863186 L16.461833,33.8863186 L17.6096747,32.4728482 C17.6096747,32.4728482 12.3695811,31.4127518 12.3695811,31.0089068 C12.3695811,30.5804223 14.1861028,28.2137823 14.1911232,28.2072532 C14.2933744,28.0740545 13.9257874,27.1249009 13.8801175,26.9432782 C13.7042004,26.243655 13.4934481,25.5602509 13.2648428,24.8764064 C11.2972495,18.9903791 12.1579067,12.09084 15.6113446,6.89759591 C17.6519379,3.82900091 20.8008505,1.50298636 24.5715439,1.50296045 C29.1386032,-0.745689545 33.9491495,-0.0663790909 37.4067368,3.77086091 C40.5595172,7.26983182 42.2602123,12.1360773 42.9435691,16.7553573 C43.2973758,19.1469218 43.4325154,21.6359045 42.6237779,23.9424355 C42.1273267,25.3583155 41.6867909,26.7470427 41.3398232,28.2072273 C41.3398232,28.2072273 43.1613909,30.5798264 43.1613909,31.0089068 C43.1613909,31.4127518 37.9212972,32.4728482 37.9212972,32.4728482 L39.094087,33.8863186 L34.3780053,33.8863186" id="Shape"></path>
                        </g>
                        <ellipse id="Oval" cx="61.2865225" cy="15.4409632" rx="11.639453" ry="11.7735314"></ellipse>
                        <g id="Group" transform="translate(54.429825, 7.772727)">
                            <path d="M6.95238095,0.672859091 L6.95238095,14.4210777" id="Shape"></path>
                            <path d="M13.6525112,6.97959184 L0.0608845614,6.97959184" id="Shape"></path>
                        </g>
                    </g>
                </g>
            </g>
        </g>
    </g>
</svg>