<?xml version="1.0" encoding="UTF-8"?>
<svg width="48px" height="60px" viewBox="0 0 48 60" version="1.1" xmlns="http://www.w3.org/2000/svg" xmlns:xlink="http://www.w3.org/1999/xlink">
    <!-- Generator: Sketch 46.2 (44496) - http://www.bohemiancoding.com/sketch -->
    <title>if_icon-31-book-bookmark_314869</title>
    <desc>Created with Sketch.</desc>
    <defs></defs>
    <g id="Page-1" stroke="none" stroke-width="1" fill="none" fill-rule="evenodd">
        <g id="home" transform="translate(-811.000000, -3083.000000)" fill-rule="nonzero" fill="#FFFFFF">
            <g id="Group-15" transform="translate(-123.000000, 2524.000000)">
                <g id="Group-12" transform="translate(510.000000, 331.000000)">
                    <g id="if_icon-31-book-bookmark_314869" transform="translate(424.000000, 228.000000)">
                        <path d="M48,60 L7.18608499,60 C3.22394873,60 0,56.7770347 0,52.8013054 L0,6 C0,2.66318894 2.6783136,0 5.98218084,0 L48,0 L48,2.4 L46.7887574,2.4 C44.8250611,2.4 43.2,4.01177491 43.2,6 C43.2,8.00208665 44.8067414,9.6 46.7887574,9.6 L48,9.6 L48,60 Z M45.6,12 L36,12 L36,38.4 L28.8,31.2 L21.6,38.4 L21.6,12 L12,12 L12,57.6 L45.6,57.6 L45.6,12 Z M9.6,57.6 L7.1882143,57.6 C4.54229472,57.6 2.4,55.4604708 2.4,52.821228 L2.4,10.8041142 C3.39925522,11.5551177 4.63978418,12 5.98218084,12 L9.6,12 L9.6,57.6 L9.6,57.6 Z M5.984079,2.4 C4.00464682,2.4 2.4,3.99791335 2.4,6 C2.4,7.98822509 4.0014131,9.6 5.984079,9.6 L42,9.6 C42,9.6 40.8,7.70516287 40.8,5.93653078 C40.8,4.16789868 42,2.4 42,2.4 L5.984079,2.4 L5.984079,2.4 Z M24,12 L24,32.6399414 L28.8,27.8399414 L33.6,32.6399414 L33.6,12 L24,12 L24,12 Z" id="book-bookmark"></path>
                    </g>
                </g>
            </g>
        </g>
    </g>
</svg>