<?xml version="1.0" encoding="UTF-8"?>
<svg width="64px" height="64px" viewBox="0 0 64 64" version="1.1" xmlns="http://www.w3.org/2000/svg" xmlns:xlink="http://www.w3.org/1999/xlink">
    <!-- Generator: Sketch 46.2 (44496) - http://www.bohemiancoding.com/sketch -->
    <title>presentation-article</title>
    <desc>Created with Sketch.</desc>
    <defs></defs>
    <g id="Page-1" stroke="none" stroke-width="1" fill="none" fill-rule="evenodd">
        <g id="home" transform="translate(-803.000000, -2857.000000)" fill-rule="nonzero" fill="#FFFFFF">
            <g id="Group-15" transform="translate(-123.000000, 2524.000000)">
                <g id="Group-12" transform="translate(510.000000, 331.000000)">
                    <g id="if_presentation-article_1291739" transform="translate(416.000000, 2.000000)">
                        <path d="M21.3333333,23.4666667 C21.3333333,22.2901333 20.3765333,21.3333333 19.2,21.3333333 C18.0234667,21.3333333 17.0666667,22.2901333 17.0666667,23.4666667 C17.0666667,24.6432 18.0234667,25.6 19.2,25.6 C20.3765333,25.6 21.3333333,24.6432 21.3333333,23.4666667 L21.3333333,23.4666667 Z M28.8,17.0666667 L13.8666667,17.0666667 C13.2778667,17.0666667 12.8,17.5434667 12.8,18.1333333 L12.8,30.9333333 C12.8,31.5232 13.2778667,32 13.8666667,32 L16,32 C16.5888,32 17.0666667,31.5232 17.0666667,30.9333333 C17.0666667,30.3434667 16.5888,29.8666667 16,29.8666667 L14.9333333,29.8666667 L14.9333333,19.2 L27.7333333,19.2 L27.7333333,28.3584 L25.2874667,25.9125333 C24.8704,25.4954667 24.1962667,25.4954667 23.7792,25.9125333 L19.5125333,30.1792 C19.0954667,30.5962667 19.0954667,31.2704 19.5125333,31.6874667 C19.9296,32.1045333 20.6037333,32.1045333 21.0208,31.6874667 L24.5333333,28.1749333 L28.0458667,31.6874667 C28.2496,31.8912 28.5226667,32 28.8,32 C28.9376,32 29.0762667,31.9744 29.2085333,31.9189333 C29.6064,31.7546667 29.8666667,31.3642667 29.8666667,30.9333333 L29.8666667,18.1333333 C29.8666667,17.5434667 29.3888,17.0666667 28.8,17.0666667 L28.8,17.0666667 Z M50.1333333,36.2666667 L41.6,36.2666667 C41.0112,36.2666667 40.5333333,36.7434667 40.5333333,37.3333333 C40.5333333,37.9232 41.0112,38.4 41.6,38.4 L50.1333333,38.4 C50.7221333,38.4 51.2,37.9232 51.2,37.3333333 C51.2,36.7434667 50.7221333,36.2666667 50.1333333,36.2666667 L50.1333333,36.2666667 Z M35.2,32 L48,32 C48.5888,32 49.0666667,31.5232 49.0666667,30.9333333 C49.0666667,30.3434667 48.5888,29.8666667 48,29.8666667 L35.2,29.8666667 C34.6112,29.8666667 34.1333333,30.3434667 34.1333333,30.9333333 C34.1333333,31.5232 34.6112,32 35.2,32 L35.2,32 Z M45.8666667,17.0666667 L35.2,17.0666667 C34.6112,17.0666667 34.1333333,17.5434667 34.1333333,18.1333333 C34.1333333,18.7232 34.6112,19.2 35.2,19.2 L45.8666667,19.2 C46.4554667,19.2 46.9333333,18.7232 46.9333333,18.1333333 C46.9333333,17.5434667 46.4554667,17.0666667 45.8666667,17.0666667 L45.8666667,17.0666667 Z M50.1333333,23.4666667 L43.7333333,23.4666667 C43.1445333,23.4666667 42.6666667,23.9434667 42.6666667,24.5333333 C42.6666667,25.1232 43.1445333,25.6 43.7333333,25.6 L50.1333333,25.6 C50.7221333,25.6 51.2,25.1232 51.2,24.5333333 C51.2,23.9434667 50.7221333,23.4666667 50.1333333,23.4666667 L50.1333333,23.4666667 Z M35.2,25.6 L39.4666667,25.6 C40.0554667,25.6 40.5333333,25.1232 40.5333333,24.5333333 C40.5333333,23.9434667 40.0554667,23.4666667 39.4666667,23.4666667 L35.2,23.4666667 C34.6112,23.4666667 34.1333333,23.9434667 34.1333333,24.5333333 C34.1333333,25.1232 34.6112,25.6 35.2,25.6 L35.2,25.6 Z M29.8666667,37.3333333 C29.8666667,37.9232 30.3445333,38.4 30.9333333,38.4 L37.3333333,38.4 C37.9221333,38.4 38.4,37.9232 38.4,37.3333333 C38.4,36.7434667 37.9221333,36.2666667 37.3333333,36.2666667 L30.9333333,36.2666667 C30.3445333,36.2666667 29.8666667,36.7434667 29.8666667,37.3333333 L29.8666667,37.3333333 Z M13.8666667,38.4 L26.6666667,38.4 C27.2554667,38.4 27.7333333,37.9232 27.7333333,37.3333333 C27.7333333,36.7434667 27.2554667,36.2666667 26.6666667,36.2666667 L13.8666667,36.2666667 C13.2778667,36.2666667 12.8,36.7434667 12.8,37.3333333 C12.8,37.9232 13.2778667,38.4 13.8666667,38.4 L13.8666667,38.4 Z M35.9541333,57.9125333 C35.5370667,57.4954667 34.8629333,57.4954667 34.4458667,57.9125333 C34.0288,58.3296 34.0288,59.0037333 34.4458667,59.4208 L38.7125333,63.6874667 C38.9205333,63.8954667 39.1936,64 39.4666667,64 C39.7397333,64 40.0128,63.8954667 40.2208,63.6874667 C40.6378667,63.2704 40.6378667,62.5962667 40.2208,62.1792 L35.9541333,57.9125333 Z M32,51.2 C31.4112,51.2 30.9333333,51.6768 30.9333333,52.2666667 L30.9333333,55.0250667 L23.7792,62.1792 C23.3621333,62.5962667 23.3621333,63.2704 23.7792,63.6874667 C23.9872,63.8954667 24.2602667,64 24.5333333,64 C24.8064,64 25.0794667,63.8954667 25.2874667,63.6874667 L32.7541333,56.2208 C32.9546667,56.0213333 33.0666667,55.7504 33.0666667,55.4666667 L33.0666667,52.2666667 C33.0666667,51.6768 32.5888,51.2 32,51.2 L32,51.2 Z M64,7.46666667 C64,8.05653333 63.5221333,8.53333333 62.9333333,8.53333333 L61.8666667,8.53333333 L61.8666667,43.7333333 C61.8666667,46.6741333 59.4741333,49.0666667 56.5333333,49.0666667 L7.46666667,49.0666667 C4.52586667,49.0666667 2.13333333,46.6741333 2.13333333,43.7333333 L2.13333333,11.7333333 C2.13333333,11.1434667 2.6112,10.6666667 3.2,10.6666667 C3.7888,10.6666667 4.26666667,11.1434667 4.26666667,11.7333333 L4.26666667,43.7333333 C4.26666667,45.4976 5.7024,46.9333333 7.46666667,46.9333333 L56.5333333,46.9333333 C58.2976,46.9333333 59.7333333,45.4976 59.7333333,43.7333333 L59.7333333,7.46666667 C59.7333333,6.8768 60.2112,6.4 60.8,6.4 L61.8666667,6.4 L61.8666667,4.26666667 L2.13333333,4.26666667 L2.13333333,6.4 L56.5333333,6.4 C57.1221333,6.4 57.6,6.8768 57.6,7.46666667 C57.6,8.05653333 57.1221333,8.53333333 56.5333333,8.53333333 L1.06666667,8.53333333 C0.477866667,8.53333333 0,8.05653333 0,7.46666667 L0,3.2 C0,2.61013333 0.477866667,2.13333333 1.06666667,2.13333333 L30.9333333,2.13333333 L30.9333333,1.06666667 C30.9333333,0.4768 31.4112,0 32,0 C32.5888,0 33.0666667,0.4768 33.0666667,1.06666667 L33.0666667,2.13333333 L62.9333333,2.13333333 C63.5221333,2.13333333 64,2.61013333 64,3.2 L64,7.46666667 Z" id="presentation-article"></path>
                    </g>
                </g>
            </g>
        </g>
    </g>
</svg>