<svg xmlns="http://www.w3.org/2000/svg" xmlns:xlink="http://www.w3.org/1999/xlink" width="51" height="51" viewBox="0 0 51 51"><defs><path id="wsaza" d="M380.75 1345.81h5.51l1.98 3.96c.14.28.42.45.73.45s.59-.17.73-.45l1.98-3.96h.41a.81.81 0 0 0 0-1.63h-.91a.83.83 0 0 0-.73.45l-1.48 2.96-1.47-2.96a.83.83 0 0 0-.73-.45h-6.02a.12.12 0 0 1-.12-.12v-20.31c0-.07.05-.12.12-.12h16.45c.06 0 .12.05.12.12v8.82a.82.82 0 0 0 1.63 0v-8.82c0-.97-.79-1.75-1.75-1.75h-16.45c-.97 0-1.75.78-1.75 1.75v20.31c0 .97.78 1.75 1.75 1.75z"/><path id="wsazb" d="M389.07 1325a4.07 4.07 0 1 1 0 8.15 4.07 4.07 0 0 1 0-8.15zm2.44 4.07a2.44 2.44 0 1 0-4.87 0 2.44 2.44 0 0 0 4.87 0z"/><path id="wsazc" d="M388.72 1336.63a5 5 0 0 1 2.69.77c.38.24.89.12 1.13-.26a.82.82 0 0 0-.26-1.12 6.72 6.72 0 0 0-10.28 5.7c0 .45.36.81.81.81h9.02a.82.82 0 0 0 0-1.63h-8.14a5.1 5.1 0 0 1 5.03-4.27z"/><path id="wsazd" d="M428.2 1322h-16.45c-.97 0-1.75.78-1.75 1.75v8.82a.82.82 0 0 0 1.63 0v-8.82c0-.07.05-.12.12-.12h16.45c.06 0 .12.05.12.12v20.31c0 .07-.06.12-.12.12h-6.02a.83.83 0 0 0-.73.45l-1.48 2.96-1.47-2.96a.83.83 0 0 0-.73-.45h-.91a.82.82 0 0 0 0 1.63h.4l1.99 3.96c.13.28.41.45.72.45s.59-.17.73-.45l1.98-3.96h5.52c.96 0 1.75-.78 1.75-1.75v-20.31c0-.97-.79-1.75-1.75-1.75z"/><path id="wsaze" d="M420.07 1325a4.07 4.07 0 1 1 0 8.15 4.07 4.07 0 0 1 0-8.15zm0 6.51a2.44 2.44 0 1 0 0-4.87 2.44 2.44 0 0 0 0 4.87z"/><path id="wsazf" d="M416.02 1341.72c0 .45.36.81.81.81h9.02c.44 0 .81-.36.81-.81a6.72 6.72 0 0 0-10.28-5.7.82.82 0 0 0-.26 1.12c.24.38.74.5 1.13.26a5.1 5.1 0 0 1 7.72 3.5h-8.14a.82.82 0 0 0-.81.82z"/><path id="wsazg" d="M395 1336.75c0-.97.78-1.75 1.75-1.75h16.45c.96 0 1.75.78 1.75 1.75v20.31c0 .97-.79 1.75-1.75 1.75h-5.52l-1.98 3.96a.81.81 0 0 1-.73.45.81.81 0 0 1-.73-.45l-1.98-3.96h-5.51c-.97 0-1.75-.78-1.75-1.75zm18.32 0a.12.12 0 0 0-.12-.12h-16.45a.12.12 0 0 0-.12.12v20.31c0 .07.05.12.12.12h6.02c.31 0 .59.18.73.45l1.47 2.96 1.48-2.96a.83.83 0 0 1 .73-.45h6.02c.06 0 .12-.05.12-.12z"/><path id="wsazh" d="M404.07 1346.14a4.07 4.07 0 1 1 0-8.15 4.07 4.07 0 0 1 0 8.15zm0-6.51a2.44 2.44 0 1 0 0 4.87 2.44 2.44 0 0 0 0-4.87z"/><path id="wsazi" d="M398.81 1355.53a.8.8 0 0 1-.81-.81 6.72 6.72 0 0 1 13.44 0c0 .45-.37.81-.82.81zm5.91-5.9a5.1 5.1 0 0 0-5.03 4.27h10.05a5.09 5.09 0 0 0-5.02-4.27z"/><path id="wsazj" d="M420.87 1369.74a.87.87 0 1 0 0-1.74.87.87 0 0 0 0 1.74z"/><path id="wsazk" d="M415.87 1369.74a.87.87 0 1 0 0-1.74.87.87 0 0 0 0 1.74z"/><path id="wsazl" d="M424.87 1369.74a.87.87 0 1 0 0-1.74.87.87 0 0 0 0 1.74z"/><path id="wsazm" d="M430 1365.81v6.51c0 .45-.36.82-.81.82h-49.38a.82.82 0 0 1-.81-.82v-6.51a.8.8 0 0 1 .81-.81h49.38a.8.8 0 0 1 .81.81zm-49.37 5.7h30.11v-4.88h-30.11zm47.74-4.88h-16v4.88h16z"/></defs><g><g transform="translate(-379 -1322)"><use xlink:href="#wsaza"/></g><g transform="translate(-379 -1322)"><use xlink:href="#wsazb"/></g><g transform="translate(-379 -1322)"><use xlink:href="#wsazc"/></g><g transform="translate(-379 -1322)"><use xlink:href="#wsazd"/></g><g transform="translate(-379 -1322)"><use xlink:href="#wsaze"/></g><g transform="translate(-379 -1322)"><use xlink:href="#wsazf"/></g><g transform="translate(-379 -1322)"><use xlink:href="#wsazg"/></g><g transform="translate(-379 -1322)"><use xlink:href="#wsazh"/></g><g transform="translate(-379 -1322)"><use xlink:href="#wsazi"/></g><g transform="translate(-379 -1322)"><use xlink:href="#wsazj"/></g><g transform="translate(-379 -1322)"><use xlink:href="#wsazk"/></g><g transform="translate(-379 -1322)"><use xlink:href="#wsazl"/></g><g transform="translate(-379 -1322)"><use xlink:href="#wsazm"/></g></g></svg>