<svg xmlns="http://www.w3.org/2000/svg" xmlns:xlink="http://www.w3.org/1999/xlink" width="41" height="44" viewBox="0 0 41 44"><defs><path id="b416a" d="M1012 1362.73v2.94h1.46v-2.2h13.92v26.4H1012v1.46h16.11c.4 0 .73-.32.73-.73v-27.87c0-.4-.33-.73-.73-.73h-15.38c-.4 0-.73.33-.73.73z"/><path id="b416b" d="M1019 1360.47V1359h2.93v1.47z"/><path id="b416c" d="M1020.2 1393a2.2 2.2 0 1 1-.02 4.4 2.2 2.2 0 0 1 .02-4.4zm0 1.47a.74.74 0 0 0-.74.73.74.74 0 0 0 1.47 0c0-.4-.33-.73-.73-.73z"/><path id="b416d" d="M1029.5 1356h-18.3a2.2 2.2 0 0 0-2.2 2.2v7.33h1.46v-7.33c0-.4.33-.73.74-.73h18.3c.4 0 .73.33.73.73v39.6c0 .4-.33.73-.73.73h-18.3a.74.74 0 0 1-.74-.73v-11.73H1009v11.73c0 1.21.99 2.2 2.2 2.2h18.3a2.2 2.2 0 0 0 2.2-2.2v-39.6a2.2 2.2 0 0 0-2.2-2.2z"/><path id="b416e" d="M1013.08 1386.27l-4.73-3.14H993.2a2.2 2.2 0 0 1-2.2-2.2v-11.73c0-1.21.99-2.2 2.2-2.2h20.5a2.2 2.2 0 0 1 2.19 2.2v15.33c0 1-.36 1.75-.99 2.06-.15.08-.36.15-.63.15-.32 0-.73-.11-1.19-.47zm-4.1-4.48l4.95 3.29c.25.19.34.19.35.19 0-.02.15-.23.15-.74v-15.33c0-.4-.33-.73-.73-.73h-20.5a.74.74 0 0 0-.74.73v11.73c0 .41.33.74.74.74h15.37c.14 0 .29.04.41.12z"/><path id="b416f" d="M1007 1372.47V1371h4.39v1.47z"/><path id="b416g" d="M995 1375.47V1374h8.05v1.47z"/><path id="b416h" d="M1005 1375.47V1374h6.59v1.47z"/><path id="b416i" d="M995 1378.47V1377h5.13v1.47z"/><path id="b416j" d="M1002 1378.47V1377h9.52v1.47z"/><path id="b416k" d="M995 1372.47V1371h10.25v1.47z"/><path id="b416l" d="M1020 1375.47V1374h1.46v1.47z"/><path id="b416m" d="M1017 1375.47V1374h1.46v1.47z"/><path id="b416n" d="M1023 1375.47V1374h2.93v1.47z"/></defs><g><g transform="translate(-991 -1356)"><use xlink:href="#b416a"/></g><g transform="translate(-991 -1356)"><use xlink:href="#b416b"/></g><g transform="translate(-991 -1356)"><use xlink:href="#b416c"/></g><g transform="translate(-991 -1356)"><use xlink:href="#b416d"/></g><g transform="translate(-991 -1356)"><use xlink:href="#b416e"/></g><g transform="translate(-991 -1356)"><use xlink:href="#b416f"/></g><g transform="translate(-991 -1356)"><use xlink:href="#b416g"/></g><g transform="translate(-991 -1356)"><use xlink:href="#b416h"/></g><g transform="translate(-991 -1356)"><use xlink:href="#b416i"/></g><g transform="translate(-991 -1356)"><use xlink:href="#b416j"/></g><g transform="translate(-991 -1356)"><use xlink:href="#b416k"/></g><g transform="translate(-991 -1356)"><use xlink:href="#b416l"/></g><g transform="translate(-991 -1356)"><use xlink:href="#b416m"/></g><g transform="translate(-991 -1356)"><use xlink:href="#b416n"/></g></g></svg>