<svg xmlns="http://www.w3.org/2000/svg" xmlns:xlink="http://www.w3.org/1999/xlink" width="52" height="56" viewBox="0 0 52 56"><defs><path id="j14xa" d="M440.99 1056.98v3.36c0 4.1-3.16 7.45-7.14 7.7-.4 6.14-3.38 9.18-5.9 10.68a13.05 13.05 0 0 1-4.72 1.63 4.91 4.91 0 0 1-4.72 3.65h-3.49a4.94 4.94 0 0 1-4.89-4.96c0-2.73 2.2-4.96 4.89-4.96h3.48a4.9 4.9 0 0 1 4.66 3.43c2.32-.4 7.32-2.1 7.89-9.46h-1.95a1.4 1.4 0 0 1-1.4-1.41v-15.96c0-.77.63-1.4 1.4-1.4h2v-2.14c0-9.3-6.54-16.32-15.22-16.32h-1.75c-8.67 0-15.22 7.02-15.22 16.32v2.13h2c.76 0 1.39.64 1.39 1.41v15.97a1.4 1.4 0 0 1-1.4 1.4h-4.28a7.67 7.67 0 0 1-7.6-7.7V1057a7.68 7.68 0 0 1 7.1-7.7v-2.15c0-5.15 1.8-9.94 5.06-13.5a17.35 17.35 0 0 1 12.96-5.64h1.75c5.01 0 9.61 2 12.95 5.65a19.82 19.82 0 0 1 5.06 13.5v2.14a7.64 7.64 0 0 1 7.09 7.69zm-41.45-4.89h-2.9a4.85 4.85 0 0 0-4.81 4.89v3.36c0 2.7 2.16 4.88 4.82 4.88h2.89zm21.07 26.96c0-1.18-.94-2.13-2.1-2.13h-3.49c-1.16 0-2.1.95-2.1 2.13 0 1.17.94 2.13 2.1 2.13h3.5c1.15 0 2.1-.96 2.1-2.13zm17.6-22.07c0-2.7-2.16-4.89-4.82-4.89h-2.89v13.13h2.9a4.85 4.85 0 0 0 4.81-4.88z"/></defs><g><g transform="translate(-389 -1028)"><use xlink:href="#j14xa"/></g></g></svg>