<svg xmlns="http://www.w3.org/2000/svg" xmlns:xlink="http://www.w3.org/1999/xlink" width="59" height="50" viewBox="0 0 59 50"><defs><path id="d1ria" d="M364.68 1396.33a4.68 4.68 0 0 0 4.69-4.67 4.68 4.68 0 0 0-9.37 0 4.67 4.67 0 0 0 4.68 4.67z"/><path id="d1rib" d="M377.29 1391l-2.52 3.43-6.36 2.53-.1-.02s-7.35.04-7.44.06a1.98 1.98 0 0 0-2.01 1.13l-6.68 14.58a2 2 0 0 0 .99 2.64 2 2 0 0 0 2.66-.99l3.22-7.04v24.83a2.4 2.4 0 0 0 2.4 2.39 2.4 2.4 0 0 0 2.4-2.39v-14.27h1.76v14.27a2.4 2.4 0 0 0 2.4 2.39 2.4 2.4 0 0 0 2.4-2.39v-31.69l6.38-2.53c.35-.14.65-.37.87-.68l1.83-2.49-1.55-2.1a3.64 3.64 0 0 1-.65-1.66z"/><path id="d1ric" d="M396.68 1396.33a4.68 4.68 0 0 0 4.69-4.67 4.68 4.68 0 0 0-9.37 0c0 2.58 2.1 4.67 4.68 4.67z"/><path id="d1rid" d="M408.94 1413.17l-6.68-14.58a2 2 0 0 0-2.01-1.13c-.1-.02-7.51-.04-7.55-.04l-6.35-2.53-3.73-5.07a2 2 0 0 0-3.23 2.35l4.07 5.54c.22.31.52.54.87.68l6.38 2.53-.01 31.69a2.4 2.4 0 0 0 4.81 0v-14.27h1.75v14.27a2.4 2.4 0 0 0 4.81 0l-.01-24.83 3.23 7.04a2 2 0 0 0 3.65-1.65z"/></defs><g><g transform="translate(-351 -1386)"><use fill="#fff" fill-opacity="0" stroke="#212121" stroke-miterlimit="50" stroke-width="2" xlink:href="#d1ria"/></g><g transform="translate(-351 -1386)"><use fill="#fff" fill-opacity="0" stroke="#212121" stroke-miterlimit="50" stroke-width="2" xlink:href="#d1rib"/></g><g transform="translate(-351 -1386)"><use fill="#fff" fill-opacity="0" stroke="#212121" stroke-miterlimit="50" stroke-width="2" xlink:href="#d1ric"/></g><g transform="translate(-351 -1386)"><use fill="#fff" fill-opacity="0" stroke="#212121" stroke-miterlimit="50" stroke-width="2" xlink:href="#d1rid"/></g></g></svg>