<svg xmlns="http://www.w3.org/2000/svg" xmlns:xlink="http://www.w3.org/1999/xlink" width="24" height="24" viewBox="0 0 24 24"><defs><path id="rg93a" d="M733.65 167.3a3.65 3.65 0 1 1 0-7.3 3.65 3.65 0 0 1 0 7.3zm0-6.35a2.7 2.7 0 1 0 0 5.4 2.7 2.7 0 0 0 0-5.4z"/><path id="rg93b" d="M750.16 167.3a3.65 3.65 0 1 1 0-7.3 3.65 3.65 0 0 1 0 7.3zm0-6.35a2.7 2.7 0 1 0 0 5.4 2.7 2.7 0 0 0 0-5.4z"/><path id="rg93c" d="M741.89 183.77a3.65 3.65 0 1 1 0-7.3 3.65 3.65 0 0 1 0 7.3zm0-6.35a2.7 2.7 0 1 0 0 5.4 2.7 2.7 0 0 0 0-5.4z"/><path id="rg93d" d="M734.48 166.78l.82-.47 6.05 10.7-.82.47z"/><path id="rg93e" d="M742.4 177.04l6.04-10.7.83.47-6.04 10.7z"/></defs><g><g transform="translate(-730 -160)"><use fill="#212121" xlink:href="#rg93a"/></g><g transform="translate(-730 -160)"><use fill="#212121" xlink:href="#rg93b"/></g><g transform="translate(-730 -160)"><use fill="#212121" xlink:href="#rg93c"/></g><g transform="translate(-730 -160)"><use fill="#212121" xlink:href="#rg93d"/></g><g transform="translate(-730 -160)"><use fill="#212121" xlink:href="#rg93e"/></g></g></svg>