<?xml version="1.0" encoding="UTF-8"?>
<svg width="154px" height="59px" viewBox="0 0 154 59" version="1.1" xmlns="http://www.w3.org/2000/svg" xmlns:xlink="http://www.w3.org/1999/xlink">
    <!-- Generator: Sketch 46.2 (44496) - http://www.bohemiancoding.com/sketch -->
    <title>Group 8</title>
    <desc>Created with Sketch.</desc>
    <defs>
        <linearGradient x1="50%" y1="0%" x2="50%" y2="100%" id="linearGradient-1">
            <stop stop-color="#7FBF53" offset="0%"></stop>
            <stop stop-color="#67B474" offset="100%"></stop>
        </linearGradient>
        <path d="M42.3624381,61.0744526 C60.5117669,30.9014473 35.4445026,-2.03925765e-12 35.4445026,-2.03925765e-12 C-2.41476139,20.6925385 -2.75288505,48.1871141 2.89156359,66.6853209 C-0.43190557,50.5002166 2.85141411,28.9479011 33.2801121,12.3166479 C33.2801121,12.3166479 52.577954,36.1058908 42.3624381,61.0744526 Z" id="path-2"></path>
        <filter x="-12.3%" y="-9.0%" width="124.6%" height="118.0%" filterUnits="objectBoundingBox" id="filter-3">
            <feOffset dx="0" dy="0" in="SourceAlpha" result="shadowOffsetOuter1"></feOffset>
            <feGaussianBlur stdDeviation="2" in="shadowOffsetOuter1" result="shadowBlurOuter1"></feGaussianBlur>
            <feColorMatrix values="0 0 0 0 0.466666667   0 0 0 0 0.733333333   0 0 0 0 0.376470588  0 0 0 1 0" type="matrix" in="shadowBlurOuter1"></feColorMatrix>
        </filter>
    </defs>
    <g id="Page-1" stroke="none" stroke-width="1" fill="none" fill-rule="evenodd">
        <g id="home" transform="translate(-350.000000, -51.000000)">
            <g id="Group-8" transform="translate(350.000000, 34.000000)">
                <g id="Group-2">
                    <g id="Group" transform="translate(117.087989, 40.645285) rotate(51.000000) translate(-117.087989, -40.645285) translate(92.587989, 7.145285)">
                        <g id="Combined-Shape">
                            <use fill="black" fill-opacity="1" filter="url(#filter-3)" xlink:href="#path-2"></use>
                            <use fill="url(#linearGradient-1)" fill-rule="evenodd" xlink:href="#path-2"></use>
                        </g>
                    </g>
                    <path d="M2.00079806,71.3485298 L2.00079806,61.7591478 L12.8187473,61.7591478 L12.8187473,60.1811483 L2.00079806,60.1811483 L2.00079806,52.6856503 L13.0296823,52.6856503 L13.0296823,51.1076508 L0.283184948,51.1076508 L0.283184948,71.3485298 L2.00079806,71.3485298 Z M27.3205247,71.7126835 C21.4143463,71.7126835 17.5572502,67.1607617 17.5572502,61.2432633 C17.5572502,55.325765 21.4143463,50.7738432 27.3205247,50.7738432 C33.1965696,50.7738432 37.0837993,55.325765 37.0837993,61.2432633 C37.0837993,67.1607617 33.1965696,71.7126835 27.3205247,71.7126835 Z M27.3205247,70.134684 C32.1418949,70.134684 35.2757855,66.3414158 35.2757855,61.2432633 C35.2757855,56.0844186 32.1418949,52.3518427 27.3205247,52.3518427 C22.4388875,52.3518427 19.365264,56.0844186 19.365264,61.2432633 C19.365264,66.3414158 22.4388875,70.134684 27.3205247,70.134684 Z M56.8890838,71.3485298 L54.809868,71.3485298 L49.1748916,62.9729936 L44.7452578,62.9729936 L44.7452578,71.3485298 L43.0276447,71.3485298 L43.0276447,51.1076508 L50.530902,51.1076508 C53.9962617,51.1076508 56.6480153,53.3229194 56.6480153,57.0251491 C56.6480153,60.6970327 54.0565289,62.7302245 51.0733061,62.851609 L56.8890838,71.3485298 Z M50.3802341,61.3949941 C53.0319877,61.3949941 54.8400015,59.5742253 54.8400015,57.0251491 C54.8400015,54.4760729 53.0319877,52.6856503 50.3802341,52.6856503 L44.7452578,52.6856503 L44.7452578,61.3949941 L50.3802341,61.3949941 Z M71.1799263,71.7126835 C77.2970397,71.7126835 80.2501289,68.2835691 80.2501289,63.2461089 L80.2501289,51.1076508 L75.8807622,51.1076508 L75.8807622,63.1247244 C75.8807622,65.9469159 74.2836833,67.8890692 71.1799263,67.8890692 C68.0761693,67.8890692 66.4489568,65.9469159 66.4489568,63.1247244 L66.4489568,51.1076508 L62.1097237,51.1076508 L62.1097237,63.2764551 C62.1097237,68.2532229 65.0628129,71.7126835 71.1799263,71.7126835 Z M90.1716046,71.3485298 L85.8926386,71.3485298 L85.8926386,51.1076508 L95.2943104,51.1076508 C99.6636771,51.1076508 102.044229,54.081573 102.044229,57.632072 C102.044229,61.1522249 99.6335435,64.1564933 95.2943104,64.1564933 L90.1716046,64.1564933 L90.1716046,71.3485298 Z M94.7217727,60.3632251 C96.4092523,60.3632251 97.6748619,59.30111 97.6748619,57.632072 C97.6748619,55.9326879 96.4092523,54.9009189 94.7217727,54.9009189 L90.1716046,54.9009189 L90.1716046,60.3632251 L94.7217727,60.3632251 Z" id="ForUP" fill="#FFFFFF"></path>
                </g>
            </g>
        </g>
    </g>
</svg>