<?xml version="1.0" encoding="UTF-8"?>
<svg width="121px" height="47px" viewBox="0 0 121 47" version="1.1" xmlns="http://www.w3.org/2000/svg" xmlns:xlink="http://www.w3.org/1999/xlink">
    <!-- Generator: Sketch 46.2 (44496) - http://www.bohemiancoding.com/sketch -->
    <title>Group 2</title>
    <desc>Created with Sketch.</desc>
    <defs>
        <linearGradient x1="50%" y1="0%" x2="50%" y2="100%" id="linearGradient-1">
            <stop stop-color="#7FBF53" offset="0%"></stop>
            <stop stop-color="#67B474" offset="100%"></stop>
        </linearGradient>
        <path d="M33.0373731,47.502352 C47.1915667,24.034459 27.6422536,-1.90425453e-12 27.6422536,-1.90425453e-12 C-1.88320995,16.0941965 -2.14690406,37.4788662 2.2550558,51.8663604 C-0.336832018,39.2779463 2.22374434,22.5150342 25.9543013,9.57961501 C25.9543013,9.57961501 41.0041905,28.0823595 33.0373731,47.502352 Z" id="path-2"></path>
        <filter x="-15.8%" y="-11.6%" width="131.6%" height="123.1%" filterUnits="objectBoundingBox" id="filter-3">
            <feOffset dx="0" dy="0" in="SourceAlpha" result="shadowOffsetOuter1"></feOffset>
            <feGaussianBlur stdDeviation="2" in="shadowOffsetOuter1" result="shadowBlurOuter1"></feGaussianBlur>
            <feColorMatrix values="0 0 0 0 0.466666667   0 0 0 0 0.733333333   0 0 0 0 0.376470588  0 0 0 1 0" type="matrix" in="shadowBlurOuter1"></feColorMatrix>
        </filter>
    </defs>
    <g id="Symbols" stroke="none" stroke-width="1" fill="none" fill-rule="evenodd">
        <g id="аooter" transform="translate(0.000000, -15.000000)">
            <g id="Group-25">
                <g id="Group-8" transform="translate(0.000000, 3.000000)">
                    <g id="Group-2">
                        <g id="Group" transform="translate(91.604453, 31.883519) rotate(51.000000) translate(-91.604453, -31.883519) translate(72.104453, 5.883519)">
                            <g id="Combined-Shape">
                                <use fill="black" fill-opacity="1" filter="url(#filter-3)" xlink:href="#path-2"></use>
                                <use fill="url(#linearGradient-1)" fill-rule="evenodd" xlink:href="#path-2"></use>
                            </g>
                        </g>
                        <path d="M1.56037081,55.4933009 L1.56037081,48.0348927 L9.99701049,48.0348927 L9.99701049,46.8075598 L1.56037081,46.8075598 L1.56037081,40.977728 L10.1615132,40.977728 L10.1615132,39.750395 L0.220848639,39.750395 L0.220848639,55.4933009 L1.56037081,55.4933009 Z M21.3065727,55.7765316 C16.7004965,55.7765316 13.6924467,52.236148 13.6924467,47.6336493 C13.6924467,43.0311505 16.7004965,39.4907669 21.3065727,39.4907669 C25.8891486,39.4907669 28.9206988,43.0311505 28.9206988,47.6336493 C28.9206988,52.236148 25.8891486,55.7765316 21.3065727,55.7765316 Z M21.3065727,54.5491986 C25.066635,54.5491986 27.5106755,51.5988789 27.5106755,47.6336493 C27.5106755,43.6212145 25.066635,40.7180999 21.3065727,40.7180999 C17.4995097,40.7180999 15.10247,43.6212145 15.10247,47.6336493 C15.10247,51.5988789 17.4995097,54.5491986 21.3065727,54.5491986 Z M44.3663295,55.4933009 L42.7448027,55.4933009 L38.3502299,48.978995 L34.8956727,48.978995 L34.8956727,55.4933009 L33.5561506,55.4933009 L33.5561506,39.750395 L39.4077474,39.750395 C42.1102922,39.750395 44.1783264,41.4733817 44.1783264,44.3528938 C44.1783264,47.2088032 42.157293,48.7901746 39.8307544,48.8845848 L44.3663295,55.4933009 Z M39.2902455,47.7516621 C41.3582797,47.7516621 42.7683031,46.3355086 42.7683031,44.3528938 C42.7683031,42.3702789 41.3582797,40.977728 39.2902455,40.977728 L34.8956727,40.977728 L34.8956727,47.7516621 L39.2902455,47.7516621 Z M55.5113891,55.7765316 C60.281968,55.7765316 62.5850062,53.1094426 62.5850062,49.1914181 L62.5850062,39.750395 L59.1774497,39.750395 L59.1774497,49.0970078 C59.1774497,51.2920457 57.9319291,52.8026094 55.5113891,52.8026094 C53.090849,52.8026094 51.821828,51.2920457 51.821828,49.0970078 L51.821828,39.750395 L48.437772,39.750395 L48.437772,49.2150206 C48.437772,53.0858401 50.7408101,55.7765316 55.5113891,55.7765316 Z M70.3225093,55.4933009 L66.985454,55.4933009 L66.985454,39.750395 L74.3175754,39.750395 C77.7251318,39.750395 79.5816626,42.0634457 79.5816626,44.8249449 C79.5816626,47.5628416 77.7016314,49.8994948 74.3175754,49.8994948 L70.3225093,49.8994948 L70.3225093,55.4933009 Z M73.871068,46.9491751 C75.1870898,46.9491751 76.1741062,46.1230856 76.1741062,44.8249449 C76.1741062,43.5032017 75.1870898,42.7007147 73.871068,42.7007147 L70.3225093,42.7007147 L70.3225093,46.9491751 L73.871068,46.9491751 Z" id="ForUP" fill="#202020"></path>
                    </g>
                </g>
            </g>
        </g>
    </g>
</svg>