<svg xmlns="http://www.w3.org/2000/svg" xmlns:xlink="http://www.w3.org/1999/xlink" width="69" height="43" viewBox="0 0 69 43"><defs><path id="8sgpa" d="M1033.48 1340.48c-1.35-2.82-6.2-6.72-10.88-10.5a95.21 95.21 0 0 1-6.65-5.66c-.4-.4-.98-.52-1.5-.34-.97.35-1.57.62-2.04.83-.72.32-.96.43-1.93.53-.43.04-.81.27-1.05.63-2.03 3.03-4.14 2.77-5.54 2.3-.45-.15-.53-.34-.58-.53-.3-1.25 1.22-4.18 3.18-6.14 4.67-4.66 7.08-5.83 12.17-3.56a168.31 168.31 0 0 0 11.62 4.6 1.44 1.44 0 1 0 .94-2.7c-.06-.02-5.72-2-11.38-4.52-6.6-2.94-10.21-1-15.38 4.15-1.96 1.96-4.64 5.93-3.95 8.84a3.55 3.55 0 0 0 2.47 2.58c3.26 1.07 6.23.05 8.45-2.88a7.27 7.27 0 0 0 2.16-.69l1-.43a119.3 119.3 0 0 0 6.2 5.22c4.23 3.4 9.02 7.27 10.1 9.5a1.68 1.68 0 0 1-.43 2.16c-.57.49-1.35.64-1.77.35a1.44 1.44 0 0 0-2.24 1.33c.1.91-.74 1.43-1.1 1.61-.92.47-1.88.39-2.24.06a1.43 1.43 0 1 0-2.41.91 2.72 2.72 0 0 1-1.7 2.2c-.44.16-1.08.26-1.65-.26a1.46 1.46 0 0 0-1.32-.33c-.47.11-.84.45-1 .9-.06.14-.18.49-1.53.49a8.3 8.3 0 0 1-3.52-1.2c-1.01-.67-7.34-5.37-12.8-9.94-.77-.64-2.1-2.02-3.27-3.24-1.04-1.09-2-2.07-2.48-2.48a1.43 1.43 0 1 0-1.86 2.19c.44.37 1.3 1.28 2.26 2.27 1.28 1.34 2.6 2.72 3.5 3.46 5.35 4.47 11.79 9.3 13.07 10.14 1.06.69 3.34 1.66 5.1 1.66 1.42 0 2.5-.32 3.26-.95 1.02.39 2.17.4 3.27-.04a5.66 5.66 0 0 0 3-2.75c1.13.24 2.43.07 3.6-.52a4.87 4.87 0 0 0 2.4-2.5 4.71 4.71 0 0 0 3.3-1.18 4.55 4.55 0 0 0 1.15-5.57z"/><path id="8sgpb" d="M1007.75 1316.73H994.8a1.44 1.44 0 1 0 0 2.87h12.94a1.44 1.44 0 1 0 0-2.87z"/><path id="8sgpc" d="M1037.7 1337.44a1.44 1.44 0 0 0-2-.4l-4.2 2.82a1.43 1.43 0 1 0 1.6 2.38l4.2-2.81c.66-.45.84-1.34.4-2z"/><path id="8sgpd" d="M1028.76 1344.27c-1.02-.81-5.63-5.5-8.47-8.47a1.44 1.44 0 0 0-2.08 1.99c.74.77 7.26 7.54 8.77 8.73a1.43 1.43 0 0 0 2.02-.24c.5-.62.39-1.52-.24-2.01z"/><path id="8sgpe" d="M1023.02 1347.15c-1.72-1.37-6.04-5.96-7.02-7.02a1.44 1.44 0 0 0-2.04-.08 1.43 1.43 0 0 0-.08 2.02c.05.06 5.21 5.62 7.35 7.32a1.45 1.45 0 0 0 2.02-.22c.5-.62.4-1.53-.23-2.02z"/><path id="8sgpf" d="M1017.3 1350.03c-2.05-1.72-6.24-6.17-7.06-7.04a1.44 1.44 0 0 0-2.03-.07 1.43 1.43 0 0 0-.07 2.02 121 121 0 0 0 7.3 7.29 1.44 1.44 0 0 0 1.86-2.2z"/><path id="8sgpg" d="M996.24 1315.42c-.65 7.46-5.6 22.61-5.81 23.26-.2.59-.75.99-1.37.99h-8.62c-.8 0-1.44-.65-1.44-1.44v-25.8a1.43 1.43 0 0 1 1.52-1.43c2.96.18 12.82.93 15.28 3.26.32.3.48.73.44 1.16zm-2.95.58c-1.81-.88-6.8-1.67-11.42-2.03v22.83h6.14c1.07-3.37 4.52-14.52 5.28-20.8z"/><path id="8sgph" d="M1048 1315.3v25.8c0 .8-.64 1.44-1.43 1.44h-8.63c-.65 0-1.21-.43-1.38-1.06-1.07-3.86-6.64-19.7-8.41-22.55a1.44 1.44 0 0 1 .6-2.06c.27-.12 6.53-3 17.82-3 .79 0 1.43.64 1.43 1.43zm-2.87 1.45c-6.84.16-11.55 1.44-13.75 2.18 2.25 4.77 6.27 16.31 7.64 20.74h6.1z"/></defs><g><g transform="translate(-979 -1311)"><use xlink:href="#8sgpa"/></g><g transform="translate(-979 -1311)"><use xlink:href="#8sgpb"/></g><g transform="translate(-979 -1311)"><use xlink:href="#8sgpc"/></g><g transform="translate(-979 -1311)"><use xlink:href="#8sgpd"/></g><g transform="translate(-979 -1311)"><use xlink:href="#8sgpe"/></g><g transform="translate(-979 -1311)"><use xlink:href="#8sgpf"/></g><g transform="translate(-979 -1311)"><use xlink:href="#8sgpg"/></g><g transform="translate(-979 -1311)"><use xlink:href="#8sgph"/></g></g></svg>